<svg width="17" height="17" xmlns="http://www.w3.org/2000/svg"><path d="M17.007 8.493c0 2.306-.01 2.596-.05 3.503-.04.903-.186 1.52-.396 2.06a4.35 4.35 0 01-2.49 2.489c-.539.21-1.16.354-2.065.394-.907.04-1.196.05-3.507.05-2.31 0-2.6-.01-3.508-.05-.904-.04-1.522-.185-2.064-.394a4.19 4.19 0 01-1.506-.98 4.187 4.187 0 01-.984-1.508c-.21-.538-.356-1.158-.396-2.061-.04-.907-.05-1.197-.05-3.503 0-2.308.01-2.598.053-3.507.04-.903.186-1.52.396-2.062a4.19 4.19 0 01.98-1.505A4.161 4.161 0 012.93.437C3.47.227 4.09.08 4.995.04 5.902 0 6.192-.01 8.502-.01s2.6.01 3.511.054c.904.04 1.523.186 2.065.394.565.214 1.08.548 1.506.98.435.426.768.937.984 1.507.21.54.356 1.16.395 2.063.04.906.044 1.196.044 3.504zm-1.526.006c0-2.269-.01-2.538-.05-3.434-.037-.827-.176-1.278-.293-1.577a2.646 2.646 0 00-.635-.977 2.623 2.623 0 00-.977-.633c-.3-.117-.748-.257-1.58-.292-.894-.041-1.163-.05-3.437-.05-2.27 0-2.54.009-3.438.05-.828.035-1.28.175-1.579.292a2.65 2.65 0 00-.977.633 2.59 2.59 0 00-.639.977c-.116.3-.256.747-.292 1.577-.04.894-.05 1.165-.05 3.434 0 2.267.01 2.537.05 3.433.036.827.176 1.28.292 1.577.136.37.353.7.635.977.273.282.609.498.978.635.299.116.748.255 1.579.291.894.04 1.167.05 3.438.05 2.27 0 2.54-.01 3.437-.05.828-.036 1.28-.175 1.58-.291a2.826 2.826 0 001.615-1.615c.117-.299.256-.747.293-1.577.04-.897.05-1.163.05-3.43zm-2.607-.006a4.37 4.37 0 01-4.372 4.366A4.37 4.37 0 014.13 8.493a4.37 4.37 0 014.372-4.367 4.37 4.37 0 014.372 4.367zm-1.536 0A2.834 2.834 0 008.502 5.66a2.834 2.834 0 00-2.836 2.833 2.835 2.835 0 002.836 2.832 2.834 2.834 0 002.836-2.832zm2.73-4.54a1.02 1.02 0 01-1.021 1.018 1.02 1.02 0 110-2.038c.564 0 1.02.457 1.02 1.02z" fill="#fdd099"/></svg>