<svg width="233" height="108" xmlns="http://www.w3.org/2000/svg"><defs><clipPath id="a"><path d="M18 89V22h60v67zm17-66H20v65h25c8.843 0 16.086-3.01 21.858-9.247 5.864-6.33 8.75-14.055 8.75-23.178 0-9.123-2.886-16.849-8.75-23.086C63.34 28.632 58.67 25.507 54 24z" fill="#fff"/></clipPath></defs><path d="M46.969 87.562h-.875v-57.5h3.156v30.063h-2.281zM44.53 0h.875v14.75h1.125v14.437h-1.125v58.375h-.875V44.5h-1.125V14.75h1.125zm3.313 60.969H51v26.593h-3.156zm-4.032 26.593h-.843v-12h-2.282V45.5h3.125zm-4.968-11.156h3.125v11.156h-3.125z" fill="#fdd099"/><path d="M35 23H20v65h25c8.843 0 16.086-3.01 21.858-9.247 5.864-6.33 8.75-14.055 8.75-23.178 0-9.123-2.886-16.849-8.75-23.086C63.34 28.632 58.67 25.507 54 24" fill="none" stroke="#fff" stroke-miterlimit="20" stroke-width="4" clip-path="url(&quot;#a&quot;)"/><text dominant-baseline="text-before-edge" style="line-height:130.59506px" fill="#fdd099" font-size="20" font-family="'Mont','Mont-Light'" font-weight="lighter" font-style="none" transform="translate(90 64)"><tspan style="font-kerning:normal" letter-spacing="3.6">R</tspan><tspan style="font-kerning:normal" letter-spacing="3.6">eal Estate</tspan></text><text dominant-baseline="text-before-edge" style="line-height:130.59506px" fill="#fff" font-size="30" font-family="'Mont','Mont-Regular'" font-weight="400" font-style="none" transform="translate(91 31)"><tspan style="font-kerning:normal">Dubai</tspan></text></svg>