<svg width="20" height="14" xmlns="http://www.w3.org/2000/svg"><path d="M19.658.973a.947.947 0 00-.017-.165L13.696 6.67l5.945 5.863a.941.941 0 00.017-.165zm-.641 12.288l-6.002-5.918-1.653 1.63c-.368.364-.85.546-1.333.546s-.965-.182-1.334-.546l-1.653-1.63-6 5.918a.97.97 0 00.32.058h17.333c.114 0 .22-.023.322-.058zM.416 12.534L6.36 6.671.416.808a.947.947 0 00-.017.165V12.37c0 .057.007.112.017.165zM1.04.081l8.335 8.22a.924.924 0 00.653.268.924.924 0 00.652-.267l8.335-8.22a.973.973 0 00-.32-.059H1.361a.97.97 0 00-.32.058z" fill="#fdd099"/></svg>