<svg width="345" height="532" xmlns="http://www.w3.org/2000/svg"><path d="M291.397 192.454c-21.93-23.999-50.861-43.026-79.374-52.203l-7.95 24.733c24.345 7.834 49.188 24.237 68.298 45.148 30.965 32.859 46.665 74.326 46.665 123.25 0 49.474-15.285 89.986-46.736 123.858-23.844 25.71-52.296 41.025-86.344 46.475V365.812h-18.933v139.903c-1.733.09-3.488.146-5.248.191V360.75h13.684V180.374h-18.933v325.643l-.113.002h-4.011V175.125h6.748V88.5h-6.748V0h-5.249v88.5h-6.748v178.499h6.748v239.02h-4.311V273h-18.745v180.374h13.684v52.646h-5.999v-47.583h-18.745v47.583H25.964V159.883H99.04v-25.98H0v398.096h156.413c54.397 0 99.789-19.208 134.914-57.083C326.94 436.56 345 388.941 345 333.382c0-55.77-18.08-103.234-53.603-140.928z" fill="#fff" opacity=".25"/></svg>