<svg width="18" height="10" xmlns="http://www.w3.org/2000/svg"><path d="M17.843 8.835c-.049-.078-.348-.706-1.79-1.995-1.508-1.351-1.305-1.132.512-3.467 1.107-1.423 1.55-2.291 1.41-2.662-.131-.355-.945-.26-.945-.26l-2.706.013s-.2-.025-.35.06c-.146.085-.24.28-.24.28s-.428 1.102-1 2.038c-1.206 1.975-1.689 2.079-1.886 1.956-.458-.285-.343-1.148-.343-1.76 0-1.916.3-2.713-.587-2.92-.295-.068-.51-.113-1.264-.121-.966-.01-1.785.003-2.247.22-.309.147-.546.471-.401.49.179.023.584.106.8.387.277.364.267 1.183.267 1.183s.16 2.253-.372 2.534c-.366.192-.867-.2-1.943-1.993C4.208 1.9 3.791.885 3.791.885s-.08-.189-.222-.29C3.395.472 3.152.434 3.152.434L.578.449S.192.459.05.62c-.126.144-.01.442-.01.442s2.015 4.548 4.296 6.84c2.093 2.1 4.469 1.963 4.469 1.963H9.88s.325-.034.49-.207c.154-.159.148-.457.148-.457s-.021-1.393.65-1.598c.66-.202 1.51 1.347 2.41 1.942.68.45 1.196.352 1.196.352l2.406-.032s1.259-.075.662-1.03z" fill="#fdd099"/></svg>